<svg width="83" height="47" viewBox="0 0 83 47" fill="none" xmlns="http://www.w3.org/2000/svg">
<path d="M34.4984 14.6667C35.8791 14.6667 36.9984 13.7713 36.9984 12.6667C36.9984 11.5621 35.8791 10.6667 34.4984 10.6667C33.1176 10.6667 31.9984 11.5621 31.9984 12.6667C31.9984 13.7713 33.1176 14.6667 34.4984 14.6667Z" fill="black"/>
<path d="M39.4984 18.6666L36.9984 16L31.9984 21.3333H51.9984L44.4984 13.3333L39.4984 18.6666Z" fill="black"/>
<path d="M55.3317 5.33331H28.665C26.8267 5.33331 25.3317 6.52931 25.3317 7.99998V24C25.3317 25.4706 26.8267 26.6666 28.665 26.6666H55.3317C57.17 26.6666 58.665 25.4706 58.665 24V7.99998C58.665 6.52931 57.17 5.33331 55.3317 5.33331ZM28.665 24V7.99998H55.3317L55.335 24H28.665V24Z" fill="black"/>
<path d="M5.82955 37.4545C5.77841 37.0227 5.57102 36.6875 5.20739 36.4489C4.84375 36.2102 4.39773 36.0909 3.86932 36.0909C3.48295 36.0909 3.14489 36.1534 2.85511 36.2784C2.56818 36.4034 2.34375 36.5753 2.18182 36.794C2.02273 37.0128 1.94318 37.2614 1.94318 37.5398C1.94318 37.7727 1.99858 37.973 2.10938 38.1406C2.22301 38.3054 2.3679 38.4432 2.54403 38.554C2.72017 38.6619 2.90483 38.7514 3.09801 38.8224C3.29119 38.8906 3.46875 38.946 3.63068 38.9886L4.51705 39.2273C4.74432 39.2869 4.99716 39.3693 5.27557 39.4744C5.55682 39.5795 5.82528 39.723 6.08097 39.9048C6.33949 40.0838 6.55256 40.3139 6.72017 40.5952C6.88778 40.8764 6.97159 41.2216 6.97159 41.6307C6.97159 42.1023 6.84801 42.5284 6.60085 42.9091C6.35653 43.2898 5.99858 43.5923 5.52699 43.8168C5.05824 44.0412 4.48864 44.1534 3.81818 44.1534C3.19318 44.1534 2.65199 44.0526 2.1946 43.8509C1.74006 43.6491 1.3821 43.3679 1.12074 43.0071C0.862216 42.6463 0.715909 42.2273 0.681818 41.75H1.77273C1.80114 42.0795 1.91193 42.3523 2.10511 42.5682C2.30114 42.7812 2.5483 42.9403 2.84659 43.0455C3.14773 43.1477 3.47159 43.1989 3.81818 43.1989C4.22159 43.1989 4.58381 43.1335 4.90483 43.0028C5.22585 42.8693 5.48011 42.6847 5.66761 42.4489C5.85511 42.2102 5.94886 41.9318 5.94886 41.6136C5.94886 41.3239 5.8679 41.0881 5.70597 40.9062C5.54403 40.7244 5.33097 40.5767 5.06676 40.4631C4.80256 40.3494 4.51705 40.25 4.21023 40.1648L3.13636 39.858C2.45455 39.6619 1.91477 39.3821 1.51705 39.0185C1.11932 38.6548 0.920455 38.179 0.920455 37.5909C0.920455 37.1023 1.05256 36.6761 1.31676 36.3125C1.58381 35.946 1.94176 35.6619 2.39062 35.4602C2.84233 35.2557 3.34659 35.1534 3.90341 35.1534C4.46591 35.1534 4.96591 35.2543 5.40341 35.456C5.84091 35.6548 6.1875 35.9276 6.44318 36.2741C6.7017 36.6207 6.83807 37.0142 6.85227 37.4545H5.82955ZM11.3171 44.1364C10.6864 44.1364 10.1424 43.9972 9.68501 43.7188C9.23047 43.4375 8.87962 43.0455 8.63246 42.5426C8.38814 42.0369 8.26598 41.4489 8.26598 40.7784C8.26598 40.108 8.38814 39.517 8.63246 39.0057C8.87962 38.4915 9.22337 38.0909 9.66371 37.804C10.1069 37.5142 10.6239 37.3693 11.2148 37.3693C11.5558 37.3693 11.8924 37.4261 12.2248 37.5398C12.5572 37.6534 12.8597 37.8381 13.1325 38.0938C13.4052 38.3466 13.6225 38.6818 13.7844 39.0994C13.9464 39.517 14.0273 40.0312 14.0273 40.642V41.0682H8.98189V40.1989H13.0046C13.0046 39.8295 12.9308 39.5 12.783 39.2102C12.6381 38.9205 12.4308 38.6918 12.1609 38.5241C11.8938 38.3565 11.5785 38.2727 11.2148 38.2727C10.8143 38.2727 10.4677 38.3722 10.1751 38.571C9.8853 38.767 9.66229 39.0227 9.50604 39.3381C9.34979 39.6534 9.27166 39.9915 9.27166 40.3523V40.9318C9.27166 41.4261 9.35689 41.8452 9.52734 42.1889C9.70064 42.5298 9.9407 42.7898 10.2475 42.9688C10.5543 43.1449 10.9109 43.233 11.3171 43.233C11.5813 43.233 11.82 43.196 12.033 43.1222C12.2489 43.0455 12.435 42.9318 12.5913 42.7812C12.7475 42.6278 12.8683 42.4375 12.9535 42.2102L13.9251 42.483C13.8228 42.8125 13.6509 43.1023 13.4094 43.3523C13.168 43.5994 12.8697 43.7926 12.5146 43.9318C12.1594 44.0682 11.7603 44.1364 11.3171 44.1364ZM16.5629 35.2727V44H15.5572V35.2727H16.5629ZM21.1491 44.1364C20.5185 44.1364 19.9744 43.9972 19.517 43.7188C19.0625 43.4375 18.7116 43.0455 18.4645 42.5426C18.2202 42.0369 18.098 41.4489 18.098 40.7784C18.098 40.108 18.2202 39.517 18.4645 39.0057C18.7116 38.4915 19.0554 38.0909 19.4957 37.804C19.9389 37.5142 20.456 37.3693 21.0469 37.3693C21.3878 37.3693 21.7244 37.4261 22.0568 37.5398C22.3892 37.6534 22.6918 37.8381 22.9645 38.0938C23.2372 38.3466 23.4545 38.6818 23.6165 39.0994C23.7784 39.517 23.8594 40.0312 23.8594 40.642V41.0682H18.8139V40.1989H22.8366C22.8366 39.8295 22.7628 39.5 22.6151 39.2102C22.4702 38.9205 22.2628 38.6918 21.9929 38.5241C21.7259 38.3565 21.4105 38.2727 21.0469 38.2727C20.6463 38.2727 20.2997 38.3722 20.0071 38.571C19.7173 38.767 19.4943 39.0227 19.3381 39.3381C19.1818 39.6534 19.1037 39.9915 19.1037 40.3523V40.9318C19.1037 41.4261 19.1889 41.8452 19.3594 42.1889C19.5327 42.5298 19.7727 42.7898 20.0795 42.9688C20.3864 43.1449 20.7429 43.233 21.1491 43.233C21.4134 43.233 21.652 43.196 21.8651 43.1222C22.081 43.0455 22.267 42.9318 22.4233 42.7812C22.5795 42.6278 22.7003 42.4375 22.7855 42.2102L23.7571 42.483C23.6548 42.8125 23.483 43.1023 23.2415 43.3523C23 43.5994 22.7017 43.7926 22.3466 43.9318C21.9915 44.0682 21.5923 44.1364 21.1491 44.1364ZM28.0483 44.1364C27.4347 44.1364 26.9063 43.9915 26.4631 43.7017C26.0199 43.4119 25.679 43.0128 25.4403 42.5043C25.2017 41.9957 25.0824 41.4148 25.0824 40.7614C25.0824 40.0966 25.2045 39.5099 25.4489 39.0014C25.696 38.4901 26.0398 38.0909 26.4801 37.804C26.9233 37.5142 27.4403 37.3693 28.0312 37.3693C28.4915 37.3693 28.9062 37.4545 29.2756 37.625C29.6449 37.7955 29.9474 38.0341 30.1832 38.3409C30.419 38.6477 30.5653 39.0057 30.6222 39.4148H29.6165C29.5398 39.1165 29.3693 38.8523 29.1051 38.6222C28.8438 38.3892 28.4915 38.2727 28.0483 38.2727C27.6563 38.2727 27.3125 38.375 27.017 38.5795C26.7244 38.7812 26.4957 39.0668 26.331 39.4361C26.169 39.8026 26.0881 40.233 26.0881 40.7273C26.0881 41.233 26.1676 41.6733 26.3267 42.0483C26.4886 42.4233 26.7159 42.7145 27.0085 42.9219C27.304 43.1293 27.6506 43.233 28.0483 43.233C28.3097 43.233 28.5469 43.1875 28.7599 43.0966C28.973 43.0057 29.1534 42.875 29.3011 42.7045C29.4489 42.5341 29.554 42.3295 29.6165 42.0909H30.6222C30.5653 42.4773 30.4247 42.8253 30.2003 43.1349C29.9787 43.4418 29.6847 43.6861 29.3182 43.8679C28.9545 44.0469 28.5313 44.1364 28.0483 44.1364ZM34.9389 37.4545V38.3068H31.5469V37.4545H34.9389ZM32.5355 35.8864H33.5412V42.125C33.5412 42.4091 33.5824 42.6222 33.6648 42.7642C33.75 42.9034 33.858 42.9972 33.9886 43.0455C34.1222 43.0909 34.2628 43.1136 34.4105 43.1136C34.5213 43.1136 34.6122 43.108 34.6832 43.0966C34.7543 43.0824 34.8111 43.071 34.8537 43.0625L35.0582 43.9659C34.9901 43.9915 34.8949 44.017 34.7727 44.0426C34.6506 44.071 34.4957 44.0852 34.3082 44.0852C34.0241 44.0852 33.7457 44.0241 33.473 43.902C33.2031 43.7798 32.9787 43.5938 32.7997 43.3438C32.6236 43.0938 32.5355 42.7784 32.5355 42.3977V35.8864ZM41.7528 44.1534C41.3381 44.1534 40.9616 44.0753 40.6236 43.919C40.2855 43.7599 40.017 43.5312 39.8182 43.233C39.6193 42.9318 39.5199 42.5682 39.5199 42.142C39.5199 41.767 39.5938 41.4631 39.7415 41.2301C39.8892 40.9943 40.0866 40.8097 40.3338 40.6761C40.581 40.5426 40.8537 40.4432 41.152 40.3778C41.4531 40.3097 41.7557 40.2557 42.0597 40.2159C42.4574 40.1648 42.7798 40.1264 43.027 40.1009C43.277 40.0724 43.4588 40.0256 43.5724 39.9602C43.6889 39.8949 43.7472 39.7812 43.7472 39.6193V39.5852C43.7472 39.1648 43.6321 38.8381 43.402 38.6051C43.1747 38.3722 42.8295 38.2557 42.3665 38.2557C41.8864 38.2557 41.5099 38.3608 41.2372 38.571C40.9645 38.7812 40.7727 39.0057 40.6619 39.2443L39.7074 38.9034C39.8778 38.5057 40.1051 38.196 40.3892 37.9744C40.6761 37.75 40.9886 37.5937 41.3267 37.5057C41.6676 37.4148 42.0028 37.3693 42.3324 37.3693C42.5426 37.3693 42.7841 37.3949 43.0568 37.446C43.3324 37.4943 43.598 37.5952 43.8537 37.7486C44.1122 37.902 44.3267 38.1335 44.4972 38.4432C44.6676 38.7528 44.7528 39.1676 44.7528 39.6875V44H43.7472V43.1136H43.696C43.6278 43.2557 43.5142 43.4077 43.3551 43.5696C43.196 43.7315 42.9844 43.8693 42.7202 43.983C42.456 44.0966 42.1335 44.1534 41.7528 44.1534ZM41.9062 43.25C42.304 43.25 42.6392 43.1719 42.9119 43.0156C43.1875 42.8594 43.3949 42.6577 43.5341 42.4105C43.6761 42.1634 43.7472 41.9034 43.7472 41.6307V40.7102C43.7045 40.7614 43.6108 40.8082 43.4659 40.8509C43.3239 40.8906 43.1591 40.9261 42.9716 40.9574C42.7869 40.9858 42.6065 41.0114 42.4304 41.0341C42.2571 41.054 42.1165 41.071 42.0085 41.0852C41.7472 41.1193 41.5028 41.1747 41.2756 41.2514C41.0511 41.3253 40.8693 41.4375 40.7301 41.5881C40.5938 41.7358 40.5256 41.9375 40.5256 42.1932C40.5256 42.5426 40.6548 42.8068 40.9134 42.9858C41.1747 43.1619 41.5057 43.25 41.9062 43.25ZM49.9634 46.4545V37.4545H50.935V38.4943H51.0543C51.1282 38.3807 51.2305 38.2358 51.3612 38.0597C51.4947 37.8807 51.685 37.7216 51.9322 37.5824C52.1822 37.4403 52.5202 37.3693 52.9464 37.3693C53.4975 37.3693 53.9833 37.5071 54.4038 37.7827C54.8242 38.0582 55.1523 38.4489 55.3881 38.9545C55.6239 39.4602 55.7418 40.0568 55.7418 40.7443C55.7418 41.4375 55.6239 42.0384 55.3881 42.5469C55.1523 43.0526 54.8256 43.4446 54.408 43.723C53.9904 43.9986 53.5089 44.1364 52.9634 44.1364C52.543 44.1364 52.2063 44.0668 51.9535 43.9276C51.7006 43.7855 51.506 43.625 51.3697 43.446C51.2333 43.2642 51.1282 43.1136 51.0543 42.9943H50.9691V46.4545H49.9634ZM50.9521 40.7273C50.9521 41.2216 51.0245 41.6577 51.1694 42.0355C51.3143 42.4105 51.5259 42.7045 51.8043 42.9176C52.0827 43.1278 52.4237 43.233 52.8271 43.233C53.2475 43.233 53.5984 43.1222 53.8796 42.9006C54.1637 42.6761 54.3768 42.375 54.5188 41.9972C54.6637 41.6165 54.7362 41.1932 54.7362 40.7273C54.7362 40.267 54.6651 39.8523 54.5231 39.483C54.3839 39.1108 54.1722 38.8168 53.8881 38.6009C53.6069 38.3821 53.2532 38.2727 52.8271 38.2727C52.418 38.2727 52.0742 38.3764 51.7958 38.5838C51.5174 38.7884 51.3072 39.0753 51.1651 39.4446C51.0231 39.8111 50.9521 40.2386 50.9521 40.7273ZM58.2816 40.0625V44H57.2759V35.2727H58.2816V38.4773H58.3668C58.5202 38.1392 58.7504 37.8707 59.0572 37.6719C59.3668 37.4702 59.7788 37.3693 60.293 37.3693C60.739 37.3693 61.1296 37.4588 61.4648 37.6378C61.8001 37.8139 62.06 38.0852 62.2447 38.4517C62.4322 38.8153 62.5259 39.2784 62.5259 39.8409V44H61.5202V39.9091C61.5202 39.3892 61.3853 38.9872 61.1154 38.7031C60.8484 38.4162 60.4776 38.2727 60.0032 38.2727C59.6737 38.2727 59.3782 38.3423 59.1168 38.4815C58.8583 38.6207 58.6538 38.8239 58.5032 39.0909C58.3555 39.358 58.2816 39.6818 58.2816 40.0625ZM67.0249 44.1364C66.4339 44.1364 65.9155 43.9957 65.4695 43.7145C65.0263 43.4332 64.6797 43.0398 64.4297 42.5341C64.1825 42.0284 64.0589 41.4375 64.0589 40.7614C64.0589 40.0795 64.1825 39.4844 64.4297 38.9759C64.6797 38.4673 65.0263 38.0724 65.4695 37.7912C65.9155 37.5099 66.4339 37.3693 67.0249 37.3693C67.6158 37.3693 68.1328 37.5099 68.576 37.7912C69.022 38.0724 69.3686 38.4673 69.6158 38.9759C69.8658 39.4844 69.9908 40.0795 69.9908 40.7614C69.9908 41.4375 69.8658 42.0284 69.6158 42.5341C69.3686 43.0398 69.022 43.4332 68.576 43.7145C68.1328 43.9957 67.6158 44.1364 67.0249 44.1364ZM67.0249 43.233C67.4737 43.233 67.843 43.1179 68.1328 42.8878C68.4226 42.6577 68.6371 42.3551 68.7763 41.9801C68.9155 41.6051 68.9851 41.1989 68.9851 40.7614C68.9851 40.3239 68.9155 39.9162 68.7763 39.5384C68.6371 39.1605 68.4226 38.8551 68.1328 38.6222C67.843 38.3892 67.4737 38.2727 67.0249 38.2727C66.576 38.2727 66.2067 38.3892 65.9169 38.6222C65.6271 38.8551 65.4126 39.1605 65.2734 39.5384C65.1342 39.9162 65.0646 40.3239 65.0646 40.7614C65.0646 41.1989 65.1342 41.6051 65.2734 41.9801C65.4126 42.3551 65.6271 42.6577 65.9169 42.8878C66.2067 43.1179 66.576 43.233 67.0249 43.233ZM74.3725 37.4545V38.3068H70.9805V37.4545H74.3725ZM71.9691 35.8864H72.9748V42.125C72.9748 42.4091 73.016 42.6222 73.0984 42.7642C73.1836 42.9034 73.2915 42.9972 73.4222 43.0455C73.5558 43.0909 73.6964 43.1136 73.8441 43.1136C73.9549 43.1136 74.0458 43.108 74.1168 43.0966C74.1879 43.0824 74.2447 43.071 74.2873 43.0625L74.4918 43.9659C74.4237 43.9915 74.3285 44.017 74.2063 44.0426C74.0842 44.071 73.9293 44.0852 73.7418 44.0852C73.4577 44.0852 73.1793 44.0241 72.9066 43.902C72.6367 43.7798 72.4123 43.5938 72.2333 43.3438C72.0572 43.0938 71.9691 42.7784 71.9691 42.3977V35.8864ZM78.4741 44.1364C77.8832 44.1364 77.3647 43.9957 76.9187 43.7145C76.4755 43.4332 76.1289 43.0398 75.8789 42.5341C75.6317 42.0284 75.5082 41.4375 75.5082 40.7614C75.5082 40.0795 75.6317 39.4844 75.8789 38.9759C76.1289 38.4673 76.4755 38.0724 76.9187 37.7912C77.3647 37.5099 77.8832 37.3693 78.4741 37.3693C79.065 37.3693 79.582 37.5099 80.0252 37.7912C80.4712 38.0724 80.8178 38.4673 81.065 38.9759C81.315 39.4844 81.44 40.0795 81.44 40.7614C81.44 41.4375 81.315 42.0284 81.065 42.5341C80.8178 43.0398 80.4712 43.4332 80.0252 43.7145C79.582 43.9957 79.065 44.1364 78.4741 44.1364ZM78.4741 43.233C78.9229 43.233 79.2923 43.1179 79.582 42.8878C79.8718 42.6577 80.0863 42.3551 80.2255 41.9801C80.3647 41.6051 80.4343 41.1989 80.4343 40.7614C80.4343 40.3239 80.3647 39.9162 80.2255 39.5384C80.0863 39.1605 79.8718 38.8551 79.582 38.6222C79.2923 38.3892 78.9229 38.2727 78.4741 38.2727C78.0252 38.2727 77.6559 38.3892 77.3661 38.6222C77.0763 38.8551 76.8619 39.1605 76.7227 39.5384C76.5835 39.9162 76.5138 40.3239 76.5138 40.7614C76.5138 41.1989 76.5835 41.6051 76.7227 41.9801C76.8619 42.3551 77.0763 42.6577 77.3661 42.8878C77.6559 43.1179 78.0252 43.233 78.4741 43.233Z" fill="black"/>
</svg>
